# xmcd
#
# Track frame offsets: 
#        150
#        14426
#        31942
#        49669
#        64843
#        77124
#        93100
#        115777
#        132473
#        149279
#        165034
#        178228
#        195032
#        207047
#        219978
#        253677
#
# Disc length: 3781 seconds
#
# Revision: 1
# Processed by: cddbd v1.5.2PL0 Copyright (c) Steve Scherf et al.
# Submitted via: ExactAudioCopy v1.3
#
DISCID=ce0ec310
DTITLE=Maurane - Nougaro Ou L'Esperance En L'Homme 
DYEAR=2009
DGENRE=Jazz
TTITLE0=Armstrong
TTITLE1=La Danse
TTITLE2=Rimes
TTITLE3=Dansez Sur Moi
TTITLE4=Le Jazz Et La Java
TTITLE5=Tu Verras
TTITLE6=Toulouse
TTITLE7=Bidonville
TTITLE8=Il Faut Tourner La Page
TTITLE9=Le Coq Et La Pendule
TTITLE10=Gratte-Moi La Tete
TTITLE11=La Pluie Fait Des Claquettes
TTITLE12=Allee Des Brouillards
TTITLE13=Il Y Avait Une Ville
TTITLE14=Ou L'Esperance En L'Homme
TTITLE15=Maurane data track Ou L'Esperance En L'Homme
EXTD=YEAR: 2009
EXTT0=
EXTT1=
EXTT2=
EXTT3=
EXTT4=
EXTT5=
EXTT6=
EXTT7=
EXTT8=
EXTT9=
EXTT10=
EXTT11=
EXTT12=
EXTT13=
EXTT14=
EXTT15=
PLAYORDER=
